<svg xmlns="http://www.w3.org/2000/svg" xmlns:xlink="http://www.w3.org/1999/xlink" width="170" zoomAndPan="magnify" viewBox="0 0 127.5 60" height="80" preserveAspectRatio="xMidYMid meet" version="1.0"><defs><g/><clipPath id="7856874315"><path d="M 75.007812 14.441406 L 119.832031 14.441406 L 119.832031 39.84375 L 75.007812 39.84375 Z M 75.007812 14.441406 " clip-rule="nonzero"/></clipPath></defs><path fill="#ff5757" d="M 87.449219 23.019531 C 87.183594 23.019531 86.925781 23.042969 86.664062 23.097656 C 86.40625 23.148438 86.15625 23.222656 85.910156 23.324219 C 85.667969 23.425781 85.433594 23.550781 85.214844 23.695312 C 84.996094 23.84375 84.792969 24.011719 84.605469 24.195312 C 84.417969 24.382812 84.253906 24.585938 84.105469 24.804688 C 83.960938 25.027344 83.835938 25.257812 83.734375 25.5 C 83.632812 25.746094 83.558594 25.996094 83.503906 26.253906 C 83.453125 26.515625 83.425781 26.777344 83.425781 27.039062 L 83.425781 34.320312 C 83.425781 34.523438 83.5 34.699219 83.644531 34.84375 C 83.789062 34.992188 83.964844 35.0625 84.171875 35.0625 C 84.375 35.0625 84.550781 34.992188 84.695312 34.84375 C 84.839844 34.699219 84.914062 34.523438 84.914062 34.320312 L 84.914062 30.503906 L 89.984375 30.503906 L 89.984375 34.316406 C 89.984375 34.523438 90.058594 34.699219 90.203125 34.84375 C 90.347656 34.988281 90.523438 35.058594 90.730469 35.058594 C 90.933594 35.058594 91.109375 34.988281 91.253906 34.84375 C 91.398438 34.699219 91.472656 34.523438 91.472656 34.316406 L 91.472656 27.039062 C 91.472656 26.777344 91.445312 26.515625 91.394531 26.253906 C 91.34375 25.996094 91.265625 25.746094 91.164062 25.5 C 91.0625 25.257812 90.941406 25.027344 90.792969 24.804688 C 90.648438 24.585938 90.480469 24.382812 90.292969 24.195312 C 90.105469 24.011719 89.902344 23.84375 89.683594 23.695312 C 89.464844 23.550781 89.230469 23.425781 88.988281 23.324219 C 88.746094 23.222656 88.492188 23.148438 88.234375 23.097656 C 87.976562 23.042969 87.714844 23.019531 87.449219 23.019531 Z M 84.914062 29.019531 L 84.914062 27.039062 C 84.921875 26.707031 84.988281 26.386719 85.121094 26.082031 C 85.253906 25.777344 85.4375 25.507812 85.671875 25.273438 C 85.910156 25.042969 86.183594 24.863281 86.492188 24.738281 C 86.796875 24.609375 87.117188 24.546875 87.449219 24.546875 C 87.78125 24.546875 88.101562 24.609375 88.410156 24.738281 C 88.71875 24.863281 88.992188 25.042969 89.226562 25.273438 C 89.464844 25.507812 89.648438 25.777344 89.78125 26.082031 C 89.910156 26.386719 89.980469 26.707031 89.984375 27.039062 L 89.984375 29.019531 Z M 84.914062 29.019531 " fill-opacity="1" fill-rule="nonzero"/><path fill="#ff5757" d="M 97.671875 23.019531 L 94.183594 23.019531 C 93.980469 23.019531 93.804688 23.089844 93.660156 23.234375 C 93.511719 23.382812 93.441406 23.554688 93.441406 23.761719 L 93.441406 34.320312 C 93.441406 34.527344 93.511719 34.703125 93.660156 34.847656 C 93.804688 34.992188 93.980469 35.066406 94.183594 35.066406 L 97.671875 35.066406 C 98.179688 35.066406 98.664062 34.96875 99.132812 34.773438 C 99.597656 34.578125 100.011719 34.304688 100.367188 33.945312 C 100.726562 33.589844 101 33.175781 101.195312 32.707031 C 101.386719 32.242188 101.484375 31.753906 101.484375 31.25 L 101.484375 26.832031 C 101.484375 26.324219 101.386719 25.839844 101.195312 25.371094 C 101 24.90625 100.722656 24.492188 100.367188 24.136719 C 100.007812 23.777344 99.597656 23.503906 99.128906 23.308594 C 98.664062 23.117188 98.175781 23.019531 97.671875 23.019531 Z M 99.996094 31.25 C 99.996094 31.558594 99.9375 31.855469 99.820312 32.136719 C 99.703125 32.421875 99.535156 32.675781 99.316406 32.890625 C 99.097656 33.109375 98.847656 33.277344 98.5625 33.398438 C 98.277344 33.515625 97.980469 33.574219 97.671875 33.574219 L 94.929688 33.574219 L 94.929688 24.5 L 97.671875 24.5 C 97.980469 24.503906 98.277344 24.5625 98.5625 24.679688 C 98.847656 24.796875 99.097656 24.964844 99.316406 25.183594 C 99.535156 25.402344 99.703125 25.652344 99.820312 25.9375 C 99.9375 26.222656 99.996094 26.519531 99.996094 26.828125 Z M 99.996094 31.25 " fill-opacity="1" fill-rule="nonzero"/><path fill="#ff5757" d="M 105.394531 24.507812 L 110.050781 24.507812 C 110.257812 24.507812 110.433594 24.4375 110.578125 24.292969 C 110.722656 24.144531 110.796875 23.972656 110.796875 23.765625 C 110.796875 23.558594 110.722656 23.382812 110.578125 23.238281 C 110.433594 23.09375 110.257812 23.023438 110.050781 23.023438 L 105.394531 23.023438 C 105.144531 23.023438 104.902344 23.070312 104.671875 23.167969 C 104.4375 23.261719 104.234375 23.398438 104.054688 23.578125 C 103.878906 23.753906 103.742188 23.957031 103.644531 24.191406 C 103.550781 24.421875 103.503906 24.664062 103.5 24.914062 L 103.5 28 C 103.503906 28.253906 103.550781 28.492188 103.644531 28.726562 C 103.742188 28.957031 103.878906 29.160156 104.054688 29.339844 C 104.234375 29.515625 104.4375 29.652344 104.671875 29.75 C 104.902344 29.84375 105.144531 29.894531 105.394531 29.894531 L 108.902344 29.894531 C 109.015625 29.894531 109.109375 29.933594 109.191406 30.011719 C 109.269531 30.089844 109.308594 30.1875 109.308594 30.296875 L 109.308594 33.386719 C 109.308594 33.496094 109.269531 33.59375 109.191406 33.671875 C 109.109375 33.75 109.015625 33.789062 108.902344 33.789062 L 104.246094 33.789062 C 104.039062 33.789062 103.863281 33.863281 103.71875 34.007812 C 103.574219 34.152344 103.5 34.328125 103.5 34.535156 C 103.5 34.738281 103.574219 34.914062 103.71875 35.058594 C 103.863281 35.207031 104.039062 35.277344 104.246094 35.277344 L 108.902344 35.277344 C 109.15625 35.277344 109.394531 35.230469 109.628906 35.132812 C 109.859375 35.039062 110.0625 34.902344 110.242188 34.722656 C 110.417969 34.546875 110.554688 34.339844 110.652344 34.109375 C 110.746094 33.878906 110.796875 33.636719 110.796875 33.386719 L 110.796875 30.296875 C 110.796875 30.046875 110.746094 29.804688 110.652344 29.574219 C 110.554688 29.34375 110.417969 29.136719 110.242188 28.960938 C 110.0625 28.785156 109.859375 28.648438 109.628906 28.550781 C 109.394531 28.453125 109.15625 28.40625 108.902344 28.40625 L 105.394531 28.40625 C 105.28125 28.40625 105.1875 28.367188 105.109375 28.289062 C 105.027344 28.207031 104.988281 28.113281 104.988281 28 L 104.988281 24.914062 C 104.988281 24.800781 105.027344 24.707031 105.109375 24.628906 C 105.1875 24.546875 105.28125 24.507812 105.394531 24.507812 Z M 105.394531 24.507812 " fill-opacity="1" fill-rule="nonzero"/><g clip-path="url(#7856874315)"><path fill="#ff5757" d="M 75.847656 39.554688 L 111.15625 39.554688 C 111.609375 39.554688 112.046875 39.46875 112.46875 39.292969 C 112.886719 39.117188 113.257812 38.871094 113.582031 38.550781 C 113.902344 38.226562 114.152344 37.855469 114.324219 37.4375 C 114.5 37.015625 114.585938 36.578125 114.585938 36.121094 L 114.585938 35.273438 L 116.296875 35.273438 C 116.753906 35.273438 117.191406 35.183594 117.609375 35.011719 C 118.027344 34.835938 118.398438 34.589844 118.71875 34.265625 C 119.042969 33.945312 119.289062 33.574219 119.464844 33.15625 C 119.636719 32.734375 119.722656 32.296875 119.726562 31.84375 L 119.726562 17.894531 C 119.722656 17.441406 119.636719 17.003906 119.464844 16.582031 C 119.289062 16.164062 119.039062 15.792969 118.71875 15.46875 C 118.398438 15.148438 118.027344 14.902344 117.605469 14.726562 C 117.1875 14.550781 116.75 14.464844 116.296875 14.464844 L 88.210938 14.464844 C 87.753906 14.464844 87.316406 14.550781 86.898438 14.726562 C 86.476562 14.902344 86.105469 15.148438 85.785156 15.46875 C 85.464844 15.792969 85.214844 16.164062 85.042969 16.582031 C 84.867188 17.003906 84.78125 17.441406 84.777344 17.894531 L 84.777344 18.742188 L 83.070312 18.742188 C 82.613281 18.742188 82.175781 18.828125 81.757812 19.003906 C 81.335938 19.179688 80.964844 19.429688 80.644531 19.75 C 80.324219 20.070312 80.074219 20.441406 79.902344 20.863281 C 79.726562 21.285156 79.640625 21.722656 79.640625 22.175781 L 79.640625 31.851562 C 79.640625 32.285156 79.511719 32.671875 79.253906 33.015625 L 75.253906 38.367188 C 75.070312 38.613281 75.046875 38.871094 75.183594 39.144531 C 75.320312 39.417969 75.542969 39.554688 75.847656 39.554688 Z M 86.265625 17.894531 C 86.265625 17.636719 86.316406 17.390625 86.414062 17.152344 C 86.511719 16.914062 86.652344 16.703125 86.835938 16.519531 C 87.019531 16.339844 87.226562 16.199219 87.464844 16.101562 C 87.703125 16 87.953125 15.953125 88.210938 15.953125 L 116.296875 15.953125 C 116.554688 15.953125 116.800781 16 117.039062 16.101562 C 117.277344 16.199219 117.484375 16.339844 117.667969 16.523438 C 117.851562 16.703125 117.992188 16.914062 118.089844 17.152344 C 118.1875 17.390625 118.238281 17.636719 118.238281 17.894531 L 118.238281 31.84375 C 118.238281 32.101562 118.1875 32.347656 118.089844 32.585938 C 117.992188 32.824219 117.851562 33.035156 117.667969 33.214844 C 117.484375 33.398438 117.277344 33.539062 117.039062 33.636719 C 116.800781 33.738281 116.554688 33.785156 116.296875 33.785156 L 114.585938 33.785156 L 114.585938 22.175781 C 114.585938 21.722656 114.496094 21.285156 114.324219 20.863281 C 114.148438 20.441406 113.898438 20.070312 113.578125 19.75 C 113.257812 19.429688 112.886719 19.179688 112.464844 19.003906 C 112.042969 18.832031 111.605469 18.742188 111.152344 18.742188 L 86.265625 18.742188 Z M 80.441406 33.90625 C 80.894531 33.296875 81.121094 32.613281 81.125 31.851562 L 81.125 22.175781 C 81.125 21.917969 81.175781 21.671875 81.273438 21.433594 C 81.371094 21.195312 81.511719 20.984375 81.695312 20.800781 C 81.878906 20.617188 82.085938 20.476562 82.324219 20.378906 C 82.5625 20.28125 82.8125 20.230469 83.070312 20.230469 L 85.507812 20.230469 C 85.511719 20.230469 85.515625 20.230469 85.523438 20.230469 C 85.527344 20.230469 85.53125 20.230469 85.535156 20.230469 L 111.15625 20.230469 C 111.414062 20.230469 111.660156 20.28125 111.898438 20.378906 C 112.136719 20.476562 112.347656 20.617188 112.53125 20.800781 C 112.710938 20.984375 112.851562 21.195312 112.953125 21.433594 C 113.050781 21.671875 113.101562 21.917969 113.101562 22.175781 L 113.101562 34.507812 C 113.101562 34.515625 113.097656 34.523438 113.097656 34.53125 C 113.097656 34.539062 113.101562 34.542969 113.101562 34.550781 L 113.101562 36.121094 C 113.101562 36.382812 113.050781 36.628906 112.953125 36.867188 C 112.851562 37.105469 112.710938 37.316406 112.53125 37.496094 C 112.347656 37.679688 112.136719 37.820312 111.898438 37.917969 C 111.660156 38.019531 111.414062 38.066406 111.15625 38.070312 L 77.335938 38.070312 Z M 80.441406 33.90625 " fill-opacity="1" fill-rule="nonzero"/></g><g fill="#545454" fill-opacity="1"><g transform="translate(0, 26.154177)"><g><path d="M 1.296875 0 L 1.296875 -9.96875 L 5.546875 -9.96875 C 6.160156 -9.96875 6.679688 -9.867188 7.109375 -9.671875 C 7.535156 -9.484375 7.859375 -9.210938 8.078125 -8.859375 C 8.296875 -8.503906 8.40625 -8.082031 8.40625 -7.59375 C 8.40625 -7.15625 8.296875 -6.765625 8.078125 -6.421875 C 7.867188 -6.085938 7.5625 -5.816406 7.15625 -5.609375 L 7.15625 -5.46875 C 7.789062 -5.300781 8.273438 -5 8.609375 -4.5625 C 8.953125 -4.132812 9.125 -3.609375 9.125 -2.984375 C 9.125 -2.035156 8.835938 -1.300781 8.265625 -0.78125 C 7.691406 -0.257812 6.835938 0 5.703125 0 Z M 5.140625 -6 C 6.054688 -6 6.515625 -6.410156 6.515625 -7.234375 C 6.515625 -7.660156 6.398438 -7.972656 6.171875 -8.171875 C 5.953125 -8.378906 5.609375 -8.484375 5.140625 -8.484375 L 3.265625 -8.484375 L 3.265625 -6 Z M 5.5 -1.5625 C 6.59375 -1.5625 7.140625 -2.054688 7.140625 -3.046875 C 7.140625 -4.035156 6.59375 -4.53125 5.5 -4.53125 L 3.265625 -4.53125 L 3.265625 -1.5625 Z M 5.5 -1.5625 "/></g></g></g><g fill="#545454" fill-opacity="1"><g transform="translate(9.755261, 26.154177)"><g><path d="M 1.296875 0 L 1.296875 -9.96875 L 5.296875 -9.96875 C 6.328125 -9.96875 7.101562 -9.726562 7.625 -9.25 C 8.15625 -8.78125 8.421875 -8.128906 8.421875 -7.296875 C 8.421875 -6.691406 8.265625 -6.191406 7.953125 -5.796875 C 7.648438 -5.410156 7.195312 -5.117188 6.59375 -4.921875 L 6.59375 -4.78125 C 6.90625 -4.632812 7.15625 -4.425781 7.34375 -4.15625 C 7.539062 -3.894531 7.722656 -3.5 7.890625 -2.96875 L 8.890625 0 L 6.875 0 L 5.890625 -2.984375 C 5.796875 -3.285156 5.6875 -3.515625 5.5625 -3.671875 C 5.4375 -3.835938 5.273438 -3.957031 5.078125 -4.03125 C 4.878906 -4.113281 4.628906 -4.15625 4.328125 -4.15625 L 3.265625 -4.15625 L 3.265625 0 Z M 5.0625 -5.71875 C 6.019531 -5.71875 6.5 -6.160156 6.5 -7.046875 C 6.5 -7.953125 6.019531 -8.40625 5.0625 -8.40625 L 3.265625 -8.40625 L 3.265625 -5.71875 Z M 5.0625 -5.71875 "/></g></g></g><g fill="#545454" fill-opacity="1"><g transform="translate(19.080744, 26.154177)"><g><path d="M 3.265625 0 L 1.296875 0 L 1.296875 -9.96875 L 3.265625 -9.96875 Z M 3.265625 0 "/></g></g></g><g fill="#545454" fill-opacity="1"><g transform="translate(23.65139, 26.154177)"><g><path d="M 4.84375 0.140625 C 4.007812 0.140625 3.285156 -0.046875 2.671875 -0.421875 C 2.066406 -0.804688 1.597656 -1.378906 1.265625 -2.140625 C 0.941406 -2.910156 0.78125 -3.859375 0.78125 -4.984375 C 0.78125 -6.117188 0.976562 -7.066406 1.375 -7.828125 C 1.769531 -8.597656 2.316406 -9.171875 3.015625 -9.546875 C 3.722656 -9.921875 4.539062 -10.109375 5.46875 -10.109375 C 6.425781 -10.109375 7.238281 -9.929688 7.90625 -9.578125 C 8.582031 -9.222656 9.054688 -8.695312 9.328125 -8 L 7.890625 -7.125 L 7.71875 -7.140625 C 7.519531 -7.578125 7.234375 -7.898438 6.859375 -8.109375 C 6.484375 -8.316406 6.019531 -8.421875 5.46875 -8.421875 C 4.613281 -8.421875 3.957031 -8.144531 3.5 -7.59375 C 3.039062 -7.050781 2.8125 -6.179688 2.8125 -4.984375 C 2.8125 -3.773438 3.023438 -2.898438 3.453125 -2.359375 C 3.878906 -1.816406 4.507812 -1.546875 5.34375 -1.546875 C 6.0625 -1.546875 6.585938 -1.707031 6.921875 -2.03125 C 7.265625 -2.351562 7.4375 -2.832031 7.4375 -3.46875 L 7.4375 -3.90625 L 5.078125 -3.90625 L 5.078125 -5.5 L 9.40625 -5.5 L 9.40625 0 L 7.515625 0 L 7.515625 -1.34375 L 7.375 -1.359375 C 7.164062 -0.878906 6.851562 -0.507812 6.4375 -0.25 C 6.019531 0.0078125 5.488281 0.140625 4.84375 0.140625 Z M 4.84375 0.140625 "/></g></g></g><g fill="#545454" fill-opacity="1"><g transform="translate(34.054728, 26.154177)"><g><path d="M 7.734375 -6.21875 L 7.734375 -9.96875 L 9.703125 -9.96875 L 9.703125 0 L 7.734375 0 L 7.734375 -4.546875 L 3.265625 -4.546875 L 3.265625 0 L 1.296875 0 L 1.296875 -9.96875 L 3.265625 -9.96875 L 3.265625 -6.21875 Z M 7.734375 -6.21875 "/></g></g></g><g fill="#545454" fill-opacity="1"><g transform="translate(45.058389, 26.154177)"><g><path d="M 8 -9.96875 L 8 -8.3125 L 5.109375 -8.3125 L 5.109375 0 L 3.15625 0 L 3.15625 -8.3125 L 0.265625 -8.3125 L 0.265625 -9.96875 Z M 8 -9.96875 "/></g></g></g><g fill="#545454" fill-opacity="1"><g transform="translate(53.326484, 26.154177)"><g><path d="M 3.203125 0 L 1.296875 0 L 1.296875 -9.96875 L 3.546875 -9.96875 L 7.5625 -3.546875 L 7.734375 -3.578125 L 7.734375 -9.96875 L 9.625 -9.96875 L 9.625 0 L 7.609375 0 L 3.375 -6.859375 L 3.203125 -6.828125 Z M 3.203125 0 "/></g></g></g><g fill="#545454" fill-opacity="1"><g transform="translate(64.261926, 26.154177)"><g><path d="M 3.265625 -4.375 L 3.265625 -1.65625 L 8.03125 -1.65625 L 8.03125 0 L 1.296875 0 L 1.296875 -9.96875 L 7.921875 -9.96875 L 7.921875 -8.328125 L 3.265625 -8.328125 L 3.265625 -5.984375 L 7.328125 -5.984375 L 7.328125 -4.375 Z M 3.265625 -4.375 "/></g></g></g><g fill="#545454" fill-opacity="1"><g transform="translate(72.837005, 26.154177)"><g><path d="M 8 -9.96875 L 8 -8.3125 L 5.109375 -8.3125 L 5.109375 0 L 3.15625 0 L 3.15625 -8.3125 L 0.265625 -8.3125 L 0.265625 -9.96875 Z M 8 -9.96875 "/></g></g></g><g fill="#545454" fill-opacity="1"><g transform="translate(3.074672, 45.857278)"><g><path d="M 5.015625 0 L 2.09375 0 L 2.09375 -16.125 L 6.265625 -16.125 L 10.34375 -4.265625 L 10.578125 -4.265625 L 14.625 -16.125 L 18.703125 -16.125 L 18.703125 0 L 15.671875 0 L 15.671875 -10.65625 L 15.40625 -10.6875 L 11.671875 0 L 9.015625 0 L 5.296875 -10.6875 L 5.015625 -10.65625 Z M 5.015625 0 "/></g></g></g><g fill="#545454" fill-opacity="1"><g transform="translate(23.867388, 45.857278)"><g><path d="M 5.28125 -7.078125 L 5.28125 -2.671875 L 12.96875 -2.671875 L 12.96875 0 L 2.09375 0 L 2.09375 -16.125 L 12.796875 -16.125 L 12.796875 -13.453125 L 5.28125 -13.453125 L 5.28125 -9.671875 L 11.84375 -9.671875 L 11.84375 -7.078125 Z M 5.28125 -7.078125 "/></g></g></g><g fill="#545454" fill-opacity="1"><g transform="translate(37.71818, 45.857278)"><g><path d="M 7.890625 -16.125 C 10.503906 -16.125 12.5 -15.445312 13.875 -14.09375 C 15.257812 -12.738281 15.953125 -10.726562 15.953125 -8.0625 C 15.953125 -5.394531 15.257812 -3.382812 13.875 -2.03125 C 12.5 -0.675781 10.503906 0 7.890625 0 L 2.09375 0 L 2.09375 -16.125 Z M 7.703125 -2.671875 C 9.367188 -2.671875 10.613281 -3.09375 11.4375 -3.9375 C 12.257812 -4.789062 12.671875 -6.164062 12.671875 -8.0625 C 12.671875 -9.945312 12.257812 -11.3125 11.4375 -12.15625 C 10.613281 -13.007812 9.367188 -13.4375 7.703125 -13.4375 L 5.28125 -13.4375 L 5.28125 -2.671875 Z M 7.703125 -2.671875 "/></g></g></g><g fill="#545454" fill-opacity="1"><g transform="translate(54.940763, 45.857278)"><g><path d="M 5.28125 0 L 2.09375 0 L 2.09375 -16.125 L 5.28125 -16.125 Z M 5.28125 0 "/></g></g></g><g fill="#545454" fill-opacity="1"><g transform="translate(62.323444, 45.857278)"><g><path d="M 15.46875 0 L 12.109375 0 L 10.90625 -3.71875 L 4.734375 -3.71875 L 3.515625 0 L 0.25 0 L 5.8125 -16.125 L 9.90625 -16.125 Z M 7.65625 -12.75 L 5.59375 -6.390625 L 10.015625 -6.390625 L 7.9375 -12.75 Z M 7.65625 -12.75 "/></g></g></g></svg>