<?xml version="1.0" standalone="no"?>
<!DOCTYPE svg PUBLIC "-//W3C//DTD SVG 20010904//EN"
 "http://www.w3.org/TR/2001/REC-SVG-20010904/DTD/svg10.dtd">
<svg version="1.0" xmlns="http://www.w3.org/2000/svg"
 width="537.000000pt" height="465.000000pt" viewBox="0 0 537.000000 465.000000"
 preserveAspectRatio="xMidYMid meet">

<g transform="translate(0.000000,465.000000) scale(0.100000,-0.100000)"
fill="#000000" stroke="none">
<path d="M2415 4385 c-250 -29 -583 -117 -734 -195 -9 -5 -43 -21 -76 -36
-178 -83 -361 -198 -512 -321 -95 -78 -256 -231 -313 -298 -98 -115 -260 -333
-260 -349 0 -3 -15 -29 -33 -58 -141 -223 -260 -552 -318 -883 -20 -114 -23
-163 -23 -400 0 -235 3 -286 23 -395 67 -374 186 -691 370 -982 53 -83 165
-238 201 -278 187 -207 168 -190 224 -190 l51 0 -81 83 c-226 233 -395 478
-512 747 -11 25 -29 68 -42 95 -68 155 -141 451 -160 652 -12 133 -12 393 0
531 12 132 52 326 97 472 31 103 46 143 100 270 65 156 207 390 331 545 142
179 392 405 595 539 162 107 404 221 627 294 84 28 246 64 375 84 204 32 533
32 730 0 404 -66 740 -201 1070 -430 44 -30 82 -58 85 -62 3 -3 43 -38 90 -76
252 -210 486 -511 635 -819 259 -535 316 -1166 158 -1734 -119 -426 -319 -775
-631 -1101 -45 -47 -82 -86 -82 -87 0 -2 22 -3 49 -3 39 0 53 5 64 21 8 11 39
46 69 77 328 347 566 827 649 1312 67 392 42 787 -76 1195 -36 123 -153 389
-223 505 -12 19 -31 51 -42 70 -163 278 -472 602 -745 782 -365 240 -733 376
-1140 423 -155 18 -437 18 -590 0z"/>
<path d="M2169 3303 c0 -21 -2 -155 -2 -297 l-2 -260 -71 -12 c-86 -14 -132
-35 -182 -83 -49 -46 -69 -84 -80 -155 -29 -183 83 -322 278 -345 l55 -6 5
-300 5 -300 400 0 c426 0 455 3 555 50 105 50 153 88 230 185 140 173 159 427
49 640 -47 91 -108 155 -211 222 l-78 51 0 81 c0 202 -132 405 -323 500 -115
56 -173 66 -414 66 l-213 0 -1 -37z m686 -114 c76 -51 143 -137 176 -227 l9
-27 -20 25 c-11 14 -20 29 -20 33 0 4 -18 32 -39 61 -46 62 -131 139 -178 161
-18 9 -35 20 -38 25 -9 14 61 -19 110 -51z m-215 -87 c30 -10 69 -25 86 -34
43 -23 117 -108 143 -163 31 -65 47 -143 34 -156 -15 -15 -505 -12 -514 3 -8
13 -11 325 -3 351 5 15 19 17 102 17 65 0 115 -6 152 -18z m-303 -204 c-2 -24
-4 -7 -4 37 0 44 2 63 4 43 2 -21 2 -57 0 -80z m-167 -438 c3 -30 9 -60 13
-67 9 -15 -51 -28 -85 -19 -38 10 -48 21 -55 59 -4 29 -1 40 21 62 21 21 34
26 64 23 l37 -3 5 -55z m640 47 c0 -19 -58 -72 -105 -95 -51 -26 -140 -42
-224 -42 -102 0 -107 3 -103 58 6 101 -16 92 222 92 166 0 210 -3 210 -13z
m302 -64 c48 -37 82 -79 115 -144 25 -49 28 -64 28 -159 0 -99 -2 -110 -32
-171 -39 -79 -102 -140 -181 -177 l-57 -27 -300 0 -300 0 0 190 0 190 115 6
c169 8 255 33 360 102 54 36 137 122 171 177 13 22 29 40 35 40 6 0 27 -12 46
-27z m-1019 -108 c43 -11 46 -29 3 -22 -42 7 -96 42 -96 63 0 11 8 9 33 -10
17 -13 44 -28 60 -31z m1326 -69 c32 -120 25 -216 -24 -333 -24 -56 -26 -34
-5 36 25 79 27 253 5 327 -17 58 -19 72 -6 59 5 -6 19 -46 30 -89z m-961 -546
c64 0 124 -5 132 -10 10 -7 -30 -10 -122 -10 l-138 0 2 43 c1 36 2 38 5 10 l4
-33 117 0z"/>
<path d="M650 1220 l0 -140 68 0 c98 0 102 6 98 149 -2 84 -6 115 -17 122 -8
5 -44 9 -81 9 l-68 0 0 -140z m110 60 c0 -25 -4 -30 -25 -30 -21 0 -25 5 -25
30 0 25 4 30 25 30 21 0 25 -5 25 -30z m-2 -118 c3 -30 1 -33 -20 -30 -23 3
-34 27 -24 54 11 28 41 11 44 -24z"/>
<path d="M883 1220 l0 -140 32 0 c29 0 31 2 27 30 -3 22 0 30 11 30 8 0 20
-13 26 -30 8 -25 15 -30 42 -30 26 0 30 3 23 18 -4 9 -7 28 -6 42 18 222 19
220 -87 220 l-67 0 -1 -140z m107 35 c0 -52 -1 -55 -25 -55 -24 0 -25 3 -25
55 0 52 1 55 25 55 24 0 25 -3 25 -55z"/>
<path d="M1125 1220 l0 -140 30 0 30 0 -2 137 -2 138 -28 3 -28 3 0 -141z"/>
<path d="M1255 1220 l0 -140 63 0 c95 0 102 6 102 95 l0 74 -52 3 c-49 3 -53
5 -53 28 0 23 3 25 53 25 50 0 52 1 52 28 l0 27 -82 0 -83 0 0 -140z m113 -57
c-3 -32 -44 -46 -54 -19 -10 26 4 46 31 46 23 0 26 -4 23 -27z"/>
<path d="M1485 1220 l0 -140 30 0 c31 0 31 1 30 53 0 49 1 52 25 52 24 0 25
-3 23 -52 l-2 -53 32 0 32 0 0 140 0 140 -32 0 -32 0 2 -57 c2 -56 1 -58 -23
-58 -24 0 -25 3 -24 58 l1 57 -31 0 -31 0 0 -140z"/>
<path d="M1720 1336 c0 -21 6 -25 33 -28 l32 -3 0 -112 -1 -113 31 0 30 0 -3
116 -4 116 36 -4 c34 -4 36 -2 36 24 l0 28 -95 0 c-94 0 -95 0 -95 -24z"/>
<path d="M1970 1221 l0 -141 34 0 33 0 -5 50 c-5 59 9 65 27 13 19 -53 29 -63
63 -63 23 0 29 4 24 16 -3 9 -6 72 -6 140 l0 124 -30 0 c-30 0 -30 0 -30 -56
0 -65 -14 -64 -33 4 -12 42 -17 47 -45 50 l-32 3 0 -140z"/>
<path d="M2210 1220 l0 -140 80 0 80 0 0 28 c0 26 -1 27 -50 24 -50 -4 -50 -4
-50 27 0 29 3 31 35 31 32 0 35 3 35 28 0 24 -4 27 -32 27 -30 0 -33 3 -36 34
l-3 33 50 -3 c50 -4 51 -3 51 24 l0 27 -80 0 -80 0 0 -140z"/>
<path d="M2427 1353 c-4 -3 -7 -15 -7 -25 0 -14 8 -18 34 -18 l33 0 6 -65 c3
-35 3 -87 0 -115 l-6 -50 32 0 33 0 -2 73 c-4 154 -4 157 30 157 34 0 52 26
29 41 -16 10 -172 12 -182 2z"/>
<path d="M2790 1359 c0 -2 -1 -66 -3 -142 l-2 -137 32 0 c31 0 32 1 30 38 -2
33 0 37 23 37 22 0 25 -4 24 -37 -1 -36 0 -38 30 -38 l31 0 -3 127 c-2 71 -8
132 -13 138 -9 9 -149 22 -149 14z m105 -99 c0 -41 -2 -45 -25 -45 -21 0 -26
5 -28 33 -5 47 4 64 30 60 20 -3 23 -9 23 -48z"/>
<path d="M3030 1358 c0 -2 -1 -65 -3 -141 l-2 -137 71 0 c46 0 75 5 82 13 6 7
12 63 13 126 3 136 0 141 -98 141 -35 0 -63 -1 -63 -2z m105 -138 c0 -84 0
-85 -25 -85 -24 0 -25 3 -28 74 -4 89 1 103 30 99 22 -3 23 -7 23 -88z"/>
<path d="M3273 1350 c-21 -8 -23 -16 -23 -74 0 -72 4 -78 65 -86 35 -4 40 -8
40 -30 0 -24 -3 -25 -52 -25 -51 1 -53 0 -53 -27 0 -28 0 -28 68 -28 40 0 73
5 80 12 16 16 16 134 0 145 -7 4 -31 10 -53 13 -35 4 -40 8 -40 30 0 23 4 25
53 28 48 3 53 5 50 25 -3 19 -10 22 -58 24 -30 1 -65 -2 -77 -7z"/>
<path d="M3580 1221 l0 -141 35 0 c33 0 34 1 29 30 -4 16 -3 37 1 47 6 14 10
8 19 -27 11 -40 15 -45 41 -45 22 0 31 5 33 20 7 49 13 65 23 65 8 0 10 -16 7
-45 l-6 -45 34 0 34 0 -1 140 0 140 -34 0 c-39 0 -49 -13 -60 -80 -12 -75 -44
-112 -46 -52 0 15 -8 50 -17 77 -16 47 -19 50 -54 53 l-38 3 0 -140z"/>
<path d="M3898 1220 l-3 -140 83 0 82 0 0 29 c0 28 -1 28 -50 23 l-50 -5 0 33
c0 31 1 32 35 28 34 -4 35 -3 35 28 0 30 -2 32 -32 30 -30 -1 -33 2 -36 33
l-3 34 50 -5 c51 -5 51 -5 51 23 l0 29 -79 0 -80 0 -3 -140z"/>
<path d="M4114 1344 c3 -9 6 -72 6 -140 l0 -124 68 0 c96 0 102 8 102 142 0
132 -5 138 -109 138 -63 0 -72 -2 -67 -16z m114 -121 c-3 -80 -5 -88 -23 -88
-18 0 -20 8 -23 74 -3 87 0 101 28 101 20 0 21 -5 18 -87z"/>
<path d="M4345 1220 l0 -140 33 0 32 0 0 140 0 140 -32 0 -33 0 0 -140z"/>
<path d="M4478 1220 l-3 -140 36 0 c35 0 36 1 35 38 -1 31 2 37 19 37 17 0 20
-6 19 -37 -1 -37 0 -38 32 -38 l34 0 0 120 c0 150 -6 160 -104 160 l-65 0 -3
-140z m112 40 c0 -47 -2 -50 -25 -50 -23 0 -25 3 -25 50 0 47 2 50 25 50 23 0
25 -3 25 -50z"/>
</g>
</svg>
